# xmcd
#
# Track frame offsets:
# 150
# 16468
# 42342
# 64392
# 93492
# 118117
# 136620
# 151348
# 175447
# 198970
#
# Disc length: 2935 seconds
#
#
# Revision: 0
# Processed by: cddbd v1.5.2PL0 Copyright (c) Steve Scherf et al.
# Submitted via: FreeRIP 2.11 
#
DISCID=860b750a
DTITLE=Zac Harmon - Live At Babe and Ricky's Inn
DYEAR=2002
DGENRE=Blues
TTITLE0=Yazoo City
TTITLE1=Forty Days
TTITLE2=Stormin' In Mississippi
TTITLE3=Full Figured Woman
TTITLE4=The Blues In You
TTITLE5=I Got News For You
TTITLE6=Alberta
TTITLE7=Smile
TTITLE8=Forty Days (Studio Version)
TTITLE9=Stormin' In Mississippi (Studio Version)
EXTD=
EXTT0=
EXTT1=
EXTT2=
EXTT3=
EXTT4=
EXTT5=
EXTT6=
EXTT7=
EXTT8=
EXTT9=
PLAYORDER=
